fd_6_states
version=1
nRows=47
nColumns=17
inDegrees=yes

# SIMM Motion File Header:
name fd_6_states
datacolumns 17
datarows 47
otherdata 1
range 0.614570 0.660755
endheader
time	/jointset/r_shoulder/r_shoulder_elev/value	/jointset/r_shoulder/r_shoulder_elev/speed	/jointset/r_elbow/r_elbow_flex/value	/jointset/r_elbow/r_elbow_flex/speed	/forceset/TRIlong/activation	/forceset/TRIlong/fiber_length	/forceset/TRIlat/activation	/forceset/TRIlat/fiber_length	/forceset/TRImed/activation	/forceset/TRImed/fiber_length	/forceset/BIClong/activation	/forceset/BIClong/fiber_length	/forceset/BICshort/activation	/forceset/BICshort/fiber_length	/forceset/BRA/activation	/forceset/BRA/fiber_length
      0.614570	     -0.055857	     -0.318525	     36.436701	   -331.522016	      0.029150	      0.151022	      0.264182	      0.084211	      0.262858	      0.079273	      0.156878	      0.134474	      0.023819	      0.135155	      0.023014	      0.084654
      0.615567	     -0.056173	     -0.317089	     36.106927	   -330.307194	      0.029027	      0.150893	      0.265197	      0.084074	      0.263788	      0.079137	      0.158428	      0.134629	      0.023768	      0.135324	      0.022974	      0.084728
      0.617985	     -0.056931	     -0.306001	     35.311911	   -327.339350	      0.028735	      0.150582	      0.267233	      0.083742	      0.265654	      0.078808	      0.161407	      0.135007	      0.023648	      0.135784	      0.022880	      0.084899
      0.618606	     -0.057117	     -0.293054	     35.108884	   -326.601557	      0.028662	      0.150502	      0.267673	      0.083658	      0.266057	      0.078724	      0.162026	      0.135103	      0.023618	      0.135847	      0.022856	      0.084952
      0.619226	     -0.057295	     -0.280851	     34.906317	   -325.857941	      0.028589	      0.150422	      0.268083	      0.083574	      0.266432	      0.078640	      0.162594	      0.135200	      0.023588	      0.135936	      0.022833	      0.084998
      0.620030	     -0.057513	     -0.262925	     34.644991	   -324.898853	      0.028496	      0.150319	      0.268583	      0.083465	      0.266887	      0.078533	      0.163308	      0.135325	      0.023550	      0.136064	      0.022802	      0.085056
      0.620471	     -0.057627	     -0.251292	     34.501543	   -324.374773	      0.028445	      0.150263	      0.269024	      0.083405	      0.267230	      0.078473	      0.164517	      0.135392	      0.023529	      0.136136	      0.022786	      0.085089
      0.620913	     -0.057735	     -0.239847	     34.358327	   -323.847885	      0.028395	      0.150207	      0.269475	      0.083346	      0.267574	      0.078414	      0.165792	      0.135456	      0.023508	      0.136207	      0.022769	      0.085121
      0.622527	     -0.058097	     -0.212535	     33.837386	   -321.852796	      0.028213	      0.150001	      0.270945	      0.083129	      0.268696	      0.078199	      0.169840	      0.135682	      0.023433	      0.136466	      0.022710	      0.085238
      0.624140	     -0.058433	     -0.207592	     33.319756	   -319.747610	      0.028036	      0.149797	      0.272173	      0.082913	      0.269633	      0.077985	      0.173085	      0.135908	      0.023360	      0.136714	      0.022653	      0.085360
      0.624902	     -0.058590	     -0.207486	     33.076653	   -318.734276	      0.027953	      0.149701	      0.272680	      0.082812	      0.270020	      0.077885	      0.174387	      0.136015	      0.023326	      0.136836	      0.022626	      0.085410
      0.625911	     -0.058801	     -0.210517	     32.755845	   -317.371998	      0.027845	      0.149574	      0.273288	      0.082678	      0.270485	      0.077752	      0.175918	      0.136157	      0.023281	      0.136992	      0.022591	      0.085483
      0.626935	     -0.059018	     -0.211301	     32.431274	   -315.983931	      0.027737	      0.149446	      0.273841	      0.082543	      0.270907	      0.077618	      0.177277	      0.136302	      0.023237	      0.137148	      0.022555	      0.085555
      0.628051	     -0.059251	     -0.205744	     32.079689	   -314.482339	      0.027621	      0.149307	      0.274375	      0.082396	      0.271314	      0.077473	      0.178559	      0.136460	      0.023189	      0.137316	      0.022518	      0.085633
      0.629166	     -0.059475	     -0.193668	     31.729772	   -312.991382	      0.027507	      0.149168	      0.274848	      0.082250	      0.271674	      0.077328	      0.179665	      0.136618	      0.023141	      0.137482	      0.022481	      0.085715
      0.629962	     -0.059622	     -0.176953	     31.481000	   -311.946679	      0.027426	      0.149070	      0.275151	      0.082147	      0.271905	      0.077225	      0.180361	      0.136730	      0.023108	      0.137599	      0.022454	      0.085770
      0.630327	     -0.059685	     -0.167707	     31.367215	   -311.471248	      0.027390	      0.149024	      0.275251	      0.082099	      0.271940	      0.077178	      0.181196	      0.136781	      0.023093	      0.137652	      0.022442	      0.085796
      0.630692	     -0.059745	     -0.157880	     31.253604	   -310.996378	      0.027353	      0.148979	      0.275331	      0.082052	      0.271940	      0.077131	      0.182283	      0.136830	      0.023078	      0.137706	      0.022431	      0.085822
      0.632288	     -0.059966	     -0.123781	     30.758908	   -308.871234	      0.027196	      0.148783	      0.275645	      0.081847	      0.271938	      0.076928	      0.186457	      0.137035	      0.023013	      0.137937	      0.022379	      0.085934
      0.633442	     -0.060101	     -0.111539	     30.403398	   -307.272515	      0.027085	      0.148642	      0.275840	      0.081699	      0.271936	      0.076781	      0.188968	      0.137180	      0.022967	      0.138101	      0.022343	      0.086013
      0.634596	     -0.060228	     -0.110512	     30.049762	   -305.620831	      0.026975	      0.148501	      0.276011	      0.081552	      0.271935	      0.076635	      0.191125	      0.137326	      0.022922	      0.138263	      0.022307	      0.086096
      0.635633	     -0.060344	     -0.111676	     29.733696	   -304.116378	      0.026878	      0.148376	      0.276148	      0.081421	      0.271934	      0.076505	      0.192805	      0.137458	      0.022881	      0.138407	      0.022276	      0.086165
      0.636670	     -0.060461	     -0.115553	     29.419200	   -302.592402	      0.026783	      0.148250	      0.276270	      0.081290	      0.271933	      0.076376	      0.194274	      0.137589	      0.022842	      0.138549	      0.022244	      0.086238
      0.637707	     -0.060582	     -0.115711	     29.106285	   -301.069765	      0.026688	      0.148126	      0.276379	      0.081160	      0.271932	      0.076247	      0.195559	      0.137721	      0.022803	      0.138690	      0.022213	      0.086308
      0.638986	     -0.060727	     -0.110204	     28.722198	   -299.196053	      0.026574	      0.147973	      0.276498	      0.081000	      0.271931	      0.076088	      0.196926	      0.137883	      0.022755	      0.138862	      0.022176	      0.086397
      0.639866	     -0.060819	     -0.098166	     28.459543	   -297.926502	      0.026496	      0.147868	      0.276570	      0.080891	      0.271930	      0.075980	      0.197745	      0.137994	      0.022723	      0.138978	      0.022151	      0.086455
      0.640194	     -0.060850	     -0.092318	     28.361908	   -297.456161	      0.026468	      0.147829	      0.276547	      0.080851	      0.271895	      0.075940	      0.198225	      0.138036	      0.022713	      0.139021	      0.022141	      0.086477
      0.640615	     -0.060887	     -0.083776	     28.236889	   -296.854821	      0.026431	      0.147779	      0.276400	      0.080799	      0.271726	      0.075888	      0.199502	      0.138087	      0.022709	      0.139076	      0.022129	      0.086506
      0.641415	     -0.060948	     -0.067679	     27.999677	   -295.704613	      0.026362	      0.147684	      0.276124	      0.080700	      0.271407	      0.075790	      0.201754	      0.138181	      0.022702	      0.139180	      0.022107	      0.086560
      0.643696	     -0.061067	     -0.042981	     27.329141	   -292.315185	      0.026169	      0.147417	      0.275364	      0.080423	      0.270533	      0.075515	      0.207028	      0.138439	      0.022681	      0.139473	      0.022044	      0.086712
      0.644632	     -0.061106	     -0.042348	     27.056254	   -290.875124	      0.026092	      0.147308	      0.275063	      0.080310	      0.270187	      0.075403	      0.208786	      0.138544	      0.022672	      0.139587	      0.022018	      0.086776
      0.645769	     -0.061156	     -0.044637	     26.726388	   -289.101084	      0.025999	      0.147176	      0.274707	      0.080174	      0.269777	      0.075267	      0.210661	      0.138672	      0.022662	      0.139727	      0.021988	      0.086851
      0.647182	     -0.061222	     -0.050218	     26.319528	   -286.870772	      0.025886	      0.147013	      0.274277	      0.080006	      0.269283	      0.075100	      0.212647	      0.138830	      0.022650	      0.139898	      0.021951	      0.086947
      0.648124	     -0.061269	     -0.049035	     26.049916	   -285.387909	      0.025812	      0.146905	      0.273998	      0.079894	      0.268962	      0.074989	      0.213790	      0.138936	      0.022642	      0.140011	      0.021927	      0.087006
      0.649066	     -0.061314	     -0.045156	     25.781701	   -283.906423	      0.025739	      0.146798	      0.273726	      0.079783	      0.268648	      0.074879	      0.214807	      0.139041	      0.022634	      0.140123	      0.021903	      0.087068
      0.650072	     -0.061354	     -0.033897	     25.497125	   -282.340893	      0.025662	      0.146684	      0.273411	      0.079665	      0.268265	      0.074762	      0.215905	      0.139154	      0.022624	      0.140240	      0.021877	      0.087134
      0.650417	     -0.061365	     -0.028250	     25.399708	   -281.806836	      0.025635	      0.146645	      0.273162	      0.079625	      0.267873	      0.074722	      0.216880	      0.139191	      0.022613	      0.140280	      0.021869	      0.087156
      0.650762	     -0.061374	     -0.022084	     25.302476	   -281.273323	      0.025609	      0.146606	      0.272897	      0.079585	      0.267450	      0.074682	      0.217891	      0.139228	      0.022601	      0.140321	      0.021860	      0.087179
      0.652489	     -0.061386	      0.005851	     24.819093	   -278.576310	      0.025480	      0.146412	      0.271606	      0.079386	      0.265392	      0.074485	      0.222340	      0.139405	      0.022541	      0.140519	      0.021818	      0.087290
      0.653889	     -0.061368	      0.017467	     24.430576	   -276.327929	      0.025378	      0.146256	      0.270598	      0.079226	      0.263786	      0.074327	      0.225308	      0.139544	      0.022494	      0.140677	      0.021784	      0.087381
      0.655290	     -0.061341	      0.021931	     24.045245	   -274.033862	      0.025278	      0.146102	      0.269622	      0.079068	      0.262233	      0.074170	      0.227808	      0.139682	      0.022448	      0.140832	      0.021751	      0.087468
      0.656281	     -0.061320	      0.019769	     23.774464	   -272.381316	      0.025208	      0.145993	      0.268951	      0.078956	      0.261166	      0.074060	      0.229336	      0.139780	      0.022416	      0.140941	      0.021728	      0.087533
      0.657272	     -0.061301	      0.018864	     23.505326	   -270.722969	      0.025139	      0.145885	      0.268296	      0.078846	      0.260123	      0.073951	      0.230691	      0.139878	      0.022384	      0.141048	      0.021706	      0.087595
      0.658683	     -0.061274	      0.019841	     23.124866	   -268.353831	      0.025042	      0.145733	      0.267388	      0.078690	      0.258681	      0.073797	      0.232362	      0.140017	      0.022340	      0.141198	      0.021674	      0.087684
      0.659814	     -0.061248	      0.027472	     22.822668	   -266.467210	      0.024966	      0.145612	      0.266683	      0.078565	      0.257561	      0.073674	      0.233511	      0.140128	      0.022305	      0.141316	      0.021649	      0.087754
      0.660284	     -0.061234	      0.032662	     22.697392	   -265.684868	      0.024935	      0.145561	      0.266307	      0.078514	      0.257004	      0.073623	      0.234264	      0.140174	      0.022290	      0.141365	      0.021639	      0.087783
      0.660755	     -0.061217	      0.039059	     22.572483	   -264.904597	      0.024904	      0.145511	      0.265745	      0.078463	      0.256242	      0.073573	      0.235642	      0.140218	      0.022276	      0.141413	      0.021628	      0.087812
